{
	"asset":{
		"generator":"Khronos glTF Blender I/O v3.6.28",
		"version":"2.0"
	},
	"scene":0,
	"scenes":[
		{
			"name":"Scene",
			"nodes":[
				10
			]
		}
	],
	"nodes":[
		{
			"mesh":0,
			"name":"defaultMaterial"
		},
		{
			"children":[
				0
			],
			"name":"Club"
		},
		{
			"mesh":1,
			"name":"defaultMaterial.001"
		},
		{
			"children":[
				2
			],
			"name":"Club.001"
		},
		{
			"mesh":2,
			"name":"defaultMaterial.002"
		},
		{
			"children":[
				4
			],
			"name":"Club.002"
		},
		{
			"mesh":3,
			"name":"defaultMaterial.003"
		},
		{
			"children":[
				6
			],
			"name":"Club.003"
		},
		{
			"mesh":4,
			"name":"defaultMaterial.004"
		},
		{
			"children":[
				8
			],
			"name":"Club.004"
		},
		{
			"children":[
				1,
				3,
				5,
				7,
				9
			],
			"name":"Bloody Bull Club",
			"translation":[
				0,
				0.9922425746917725,
				0
			]
		}
	],
	"materials":[
		{
			"alphaMode":"BLEND",
			"doubleSided":true,
			"name":"Bulb",
			"normalTexture":{
				"index":0
			},
			"occlusionTexture":{
				"index":1
			},
			"pbrMetallicRoughness":{
				"baseColorTexture":{
					"index":2
				},
				"metallicRoughnessTexture":{
					"index":1
				}
			}
		},
		{
			"alphaMode":"BLEND",
			"doubleSided":true,
			"name":"Handle",
			"normalTexture":{
				"index":3
			},
			"occlusionTexture":{
				"index":4
			},
			"pbrMetallicRoughness":{
				"baseColorTexture":{
					"index":5
				},
				"metallicRoughnessTexture":{
					"index":4
				}
			}
		},
		{
			"alphaMode":"BLEND",
			"doubleSided":true,
			"name":"Rope",
			"normalTexture":{
				"index":6
			},
			"occlusionTexture":{
				"index":7
			},
			"pbrMetallicRoughness":{
				"baseColorTexture":{
					"index":8
				},
				"metallicRoughnessTexture":{
					"index":7
				}
			}
		},
		{
			"alphaMode":"BLEND",
			"doubleSided":true,
			"name":"Stone",
			"normalTexture":{
				"index":9
			},
			"occlusionTexture":{
				"index":10
			},
			"pbrMetallicRoughness":{
				"baseColorTexture":{
					"index":11
				},
				"metallicRoughnessTexture":{
					"index":10
				}
			}
		},
		{
			"alphaMode":"BLEND",
			"doubleSided":true,
			"name":"Heavy_Metal",
			"normalTexture":{
				"index":12
			},
			"occlusionTexture":{
				"index":13
			},
			"pbrMetallicRoughness":{
				"baseColorTexture":{
					"index":14
				},
				"metallicRoughnessTexture":{
					"index":13
				}
			}
		}
	],
	"meshes":[
		{
			"name":"defaultMaterial",
			"primitives":[
				{
					"attributes":{
						"POSITION":0,
						"NORMAL":1,
						"TEXCOORD_0":2
					},
					"indices":3,
					"material":0
				}
			]
		},
		{
			"name":"defaultMaterial.001",
			"primitives":[
				{
					"attributes":{
						"POSITION":4,
						"NORMAL":5,
						"TEXCOORD_0":6
					},
					"indices":7,
					"material":1
				}
			]
		},
		{
			"name":"defaultMaterial.002",
			"primitives":[
				{
					"attributes":{
						"POSITION":8,
						"NORMAL":9,
						"TEXCOORD_0":10
					},
					"indices":11,
					"material":2
				}
			]
		},
		{
			"name":"defaultMaterial.003",
			"primitives":[
				{
					"attributes":{
						"POSITION":12,
						"NORMAL":13,
						"TEXCOORD_0":14
					},
					"indices":15,
					"material":3
				}
			]
		},
		{
			"name":"defaultMaterial.004",
			"primitives":[
				{
					"attributes":{
						"POSITION":16,
						"NORMAL":17,
						"TEXCOORD_0":18
					},
					"indices":19,
					"material":4
				}
			]
		}
	],
	"textures":[
		{
			"sampler":0,
			"source":0
		},
		{
			"sampler":0,
			"source":1
		},
		{
			"sampler":0,
			"source":2
		},
		{
			"sampler":0,
			"source":3
		},
		{
			"sampler":0,
			"source":4
		},
		{
			"sampler":0,
			"source":5
		},
		{
			"sampler":0,
			"source":6
		},
		{
			"sampler":0,
			"source":7
		},
		{
			"sampler":0,
			"source":8
		},
		{
			"sampler":0,
			"source":9
		},
		{
			"sampler":0,
			"source":10
		},
		{
			"sampler":0,
			"source":11
		},
		{
			"sampler":0,
			"source":12
		},
		{
			"sampler":0,
			"source":13
		},
		{
			"sampler":0,
			"source":14
		}
	],
	"images":[
		{
			"mimeType":"image/png",
			"name":"Bulb_normal",
			"uri":"textures/Bulb_normal.png"
		},
		{
			"mimeType":"image/png",
			"name":"Bulb_metallicRoughness",
			"uri":"textures/Bulb_metallicRoughness.png"
		},
		{
			"mimeType":"image/png",
			"name":"Bulb_baseColor",
			"uri":"textures/Bulb_baseColor.png"
		},
		{
			"mimeType":"image/png",
			"name":"Handle_normal",
			"uri":"textures/Handle_normal.png"
		},
		{
			"mimeType":"image/png",
			"name":"Handle_metallicRoughness",
			"uri":"textures/Handle_metallicRoughness.png"
		},
		{
			"mimeType":"image/png",
			"name":"Handle_baseColor",
			"uri":"textures/Handle_baseColor.png"
		},
		{
			"mimeType":"image/png",
			"name":"Rope_normal",
			"uri":"textures/Rope_normal.png"
		},
		{
			"mimeType":"image/png",
			"name":"Rope_metallicRoughness",
			"uri":"textures/Rope_metallicRoughness.png"
		},
		{
			"mimeType":"image/png",
			"name":"Rope_baseColor",
			"uri":"textures/Rope_baseColor.png"
		},
		{
			"mimeType":"image/png",
			"name":"Stone_normal",
			"uri":"textures/Stone_normal.png"
		},
		{
			"mimeType":"image/png",
			"name":"Stone_metallicRoughness",
			"uri":"textures/Stone_metallicRoughness.png"
		},
		{
			"mimeType":"image/png",
			"name":"Stone_baseColor",
			"uri":"textures/Stone_baseColor.png"
		},
		{
			"mimeType":"image/png",
			"name":"Heavy_Metal_normal",
			"uri":"textures/Heavy_Metal_normal.png"
		},
		{
			"mimeType":"image/png",
			"name":"Heavy_Metal_metallicRoughness",
			"uri":"textures/Heavy_Metal_metallicRoughness.png"
		},
		{
			"mimeType":"image/png",
			"name":"Heavy_Metal_baseColor",
			"uri":"textures/Heavy_Metal_baseColor.png"
		}
	],
	"accessors":[
		{
			"bufferView":0,
			"componentType":5126,
			"count":218,
			"max":[
				0.06040389835834503,
				-0.896884024143219,
				0.06040409952402115
			],
			"min":[
				-0.06040380150079727,
				-1,
				-0.06040370091795921
			],
			"type":"VEC3"
		},
		{
			"bufferView":1,
			"componentType":5126,
			"count":218,
			"type":"VEC3"
		},
		{
			"bufferView":2,
			"componentType":5126,
			"count":218,
			"type":"VEC2"
		},
		{
			"bufferView":3,
			"componentType":5123,
			"count":1104,
			"type":"SCALAR"
		},
		{
			"bufferView":4,
			"componentType":5126,
			"count":410,
			"max":[
				0.029471900314092636,
				-0.4257729947566986,
				0.029472099617123604
			],
			"min":[
				-0.029471900314092636,
				-0.8812130093574524,
				-0.029471799731254578
			],
			"type":"VEC3"
		},
		{
			"bufferView":5,
			"componentType":5126,
			"count":410,
			"type":"VEC3"
		},
		{
			"bufferView":6,
			"componentType":5126,
			"count":410,
			"type":"VEC2"
		},
		{
			"bufferView":7,
			"componentType":5123,
			"count":1920,
			"type":"SCALAR"
		},
		{
			"bufferView":8,
			"componentType":5126,
			"count":1176,
			"max":[
				0.0864666998386383,
				0.5637609958648682,
				0.11437799781560898
			],
			"min":[
				-0.0864666998386383,
				-0.3743779957294464,
				-0.11437799781560898
			],
			"type":"VEC3"
		},
		{
			"bufferView":9,
			"componentType":5126,
			"count":1176,
			"type":"VEC3"
		},
		{
			"bufferView":10,
			"componentType":5126,
			"count":1176,
			"type":"VEC2"
		},
		{
			"bufferView":11,
			"componentType":5123,
			"count":6336,
			"type":"SCALAR"
		},
		{
			"bufferView":12,
			"componentType":5126,
			"count":455,
			"max":[
				0.10931699723005295,
				1,
				0.10931699723005295
			],
			"min":[
				-0.10931699723005295,
				-0.41010698676109314,
				-0.10931699723005295
			],
			"type":"VEC3"
		},
		{
			"bufferView":13,
			"componentType":5126,
			"count":455,
			"type":"VEC3"
		},
		{
			"bufferView":14,
			"componentType":5126,
			"count":455,
			"type":"VEC2"
		},
		{
			"bufferView":15,
			"componentType":5123,
			"count":1560,
			"type":"SCALAR"
		},
		{
			"bufferView":16,
			"componentType":5126,
			"count":4332,
			"max":[
				0.12624399363994598,
				0.8582000136375427,
				0.10006999969482422
			],
			"min":[
				-0.12624399363994598,
				-0.896884024143219,
				-0.10006999969482422
			],
			"type":"VEC3"
		},
		{
			"bufferView":17,
			"componentType":5126,
			"count":4332,
			"type":"VEC3"
		},
		{
			"bufferView":18,
			"componentType":5126,
			"count":4332,
			"type":"VEC2"
		},
		{
			"bufferView":19,
			"componentType":5123,
			"count":20592,
			"type":"SCALAR"
		}
	],
	"bufferViews":[
		{
			"buffer":0,
			"byteLength":2616,
			"byteOffset":0,
			"target":34962
		},
		{
			"buffer":0,
			"byteLength":2616,
			"byteOffset":2616,
			"target":34962
		},
		{
			"buffer":0,
			"byteLength":1744,
			"byteOffset":5232,
			"target":34962
		},
		{
			"buffer":0,
			"byteLength":2208,
			"byteOffset":6976,
			"target":34963
		},
		{
			"buffer":0,
			"byteLength":4920,
			"byteOffset":9184,
			"target":34962
		},
		{
			"buffer":0,
			"byteLength":4920,
			"byteOffset":14104,
			"target":34962
		},
		{
			"buffer":0,
			"byteLength":3280,
			"byteOffset":19024,
			"target":34962
		},
		{
			"buffer":0,
			"byteLength":3840,
			"byteOffset":22304,
			"target":34963
		},
		{
			"buffer":0,
			"byteLength":14112,
			"byteOffset":26144,
			"target":34962
		},
		{
			"buffer":0,
			"byteLength":14112,
			"byteOffset":40256,
			"target":34962
		},
		{
			"buffer":0,
			"byteLength":9408,
			"byteOffset":54368,
			"target":34962
		},
		{
			"buffer":0,
			"byteLength":12672,
			"byteOffset":63776,
			"target":34963
		},
		{
			"buffer":0,
			"byteLength":5460,
			"byteOffset":76448,
			"target":34962
		},
		{
			"buffer":0,
			"byteLength":5460,
			"byteOffset":81908,
			"target":34962
		},
		{
			"buffer":0,
			"byteLength":3640,
			"byteOffset":87368,
			"target":34962
		},
		{
			"buffer":0,
			"byteLength":3120,
			"byteOffset":91008,
			"target":34963
		},
		{
			"buffer":0,
			"byteLength":51984,
			"byteOffset":94128,
			"target":34962
		},
		{
			"buffer":0,
			"byteLength":51984,
			"byteOffset":146112,
			"target":34962
		},
		{
			"buffer":0,
			"byteLength":34656,
			"byteOffset":198096,
			"target":34962
		},
		{
			"buffer":0,
			"byteLength":41184,
			"byteOffset":232752,
			"target":34963
		}
	],
	"samplers":[
		{
			"magFilter":9729,
			"minFilter":9987
		}
	],
	"buffers":[
		{
			"byteLength":273936,
			"uri":"bonk.bin"
		}
	]
}
