{
  "accessors": [
    {
      "bufferView": 2,
      "componentType": 5126,
      "count": 4077,
      "max": [
        1.7038202285766602,
        0.8810681700706482,
        0.8459688425064087
      ],
      "min": [
        -1.7011784315109253,
        -0.8766502141952515,
        -0.8493256568908691
      ],
      "type": "VEC3"
    },
    {
      "bufferView": 2,
      "byteOffset": 48924,
      "componentType": 5126,
      "count": 4077,
      "max": [
        0.9999992847442627,
        0.9999963045120239,
        0.999976396560669
      ],
      "min": [
        -0.9999973773956299,
        -0.9999991655349731,
        -0.9999967813491821
      ],
      "type": "VEC3"
    },
    {
      "bufferView": 1,
      "componentType": 5126,
      "count": 4077,
      "max": [
        0.8528991341590881,
        1.0
      ],
      "min": [
        0.0,
        0.0
      ],
      "type": "VEC2"
    },
    {
      "bufferView": 0,
      "componentType": 5125,
      "count": 22056,
      "type": "SCALAR"
    },
    {
      "bufferView": 2,
      "byteOffset": 97848,
      "componentType": 5126,
      "count": 214,
      "max": [
        0.6039140224456787,
        0.3969804048538208,
        0.843116283416748
      ],
      "min": [
        -0.6039140224456787,
        -0.3969804048538208,
        0.774238109588623
      ],
      "type": "VEC3"
    },
    {
      "bufferView": 2,
      "byteOffset": 100416,
      "componentType": 5126,
      "count": 214,
      "max": [
        0.9999575614929199,
        0.9999817609786987,
        0.9907602071762085
      ],
      "min": [
        -0.9999575614929199,
        -0.9999817609786987,
        -0.009216761216521263
      ],
      "type": "VEC3"
    },
    {
      "bufferView": 1,
      "byteOffset": 32616,
      "componentType": 5126,
      "count": 214,
      "max": [
        1.0038952827453613,
        0.7578015327453613
      ],
      "min": [
        0.8741785287857056,
        0.36329224705696106
      ],
      "type": "VEC2"
    },
    {
      "bufferView": 0,
      "byteOffset": 88224,
      "componentType": 5125,
      "count": 762,
      "type": "SCALAR"
    },
    {
      "bufferView": 2,
      "byteOffset": 102984,
      "componentType": 5126,
      "count": 168,
      "max": [
        0.6039140224456787,
        0.3969804048538208,
        4.5386199951171875
      ],
      "min": [
        -0.6039140224456787,
        -0.3969804048538208,
        4.513571262359619
      ],
      "type": "VEC3"
    },
    {
      "bufferView": 2,
      "byteOffset": 105000,
      "componentType": 5126,
      "count": 168,
      "max": [
        0.579348623752594,
        0.5087529420852661,
        0.9907602071762085
      ],
      "min": [
        -0.579348623752594,
        -0.5087529420852661,
        -0.9994041919708252
      ],
      "type": "VEC3"
    },
    {
      "bufferView": 1,
      "byteOffset": 34328,
      "componentType": 5126,
      "count": 168,
      "max": [
        1.0038952827453613,
        0.7578015327453613
      ],
      "min": [
        0.8741785287857056,
        0.36329224705696106
      ],
      "type": "VEC2"
    },
    {
      "bufferView": 0,
      "byteOffset": 91272,
      "componentType": 5125,
      "count": 666,
      "type": "SCALAR"
    },
    {
      "bufferView": 2,
      "byteOffset": 107016,
      "componentType": 5126,
      "count": 208,
      "max": [
        0.6039140224456787,
        0.3969804048538208,
        -1.6306490898132324
      ],
      "min": [
        -0.6039140224456787,
        -0.3969804048538208,
        -4.687625885009766
      ],
      "type": "VEC3"
    },
    {
      "bufferView": 2,
      "byteOffset": 109512,
      "componentType": 5126,
      "count": 208,
      "max": [
        0.9995635747909546,
        0.999811053276062,
        0.045411817729473114
      ],
      "min": [
        -0.9995635747909546,
        -0.999811053276062,
        -0.9895034432411194
      ],
      "type": "VEC3"
    },
    {
      "bufferView": 1,
      "byteOffset": 35672,
      "componentType": 5126,
      "count": 208,
      "max": [
        0.8741785287857056,
        0.7545590400695801
      ],
      "min": [
        0.0038952529430389404,
        0.36329221725463867
      ],
      "type": "VEC2"
    },
    {
      "bufferView": 0,
      "byteOffset": 93936,
      "componentType": 5125,
      "count": 858,
      "type": "SCALAR"
    },
    {
      "bufferView": 2,
      "byteOffset": 112008,
      "componentType": 5126,
      "count": 144,
      "max": [
        0.6031820774078369,
        0.39649927616119385,
        4.5386199951171875
      ],
      "min": [
        -0.6031820774078369,
        -0.39649927616119385,
        -2.377903461456299
      ],
      "type": "VEC3"
    },
    {
      "bufferView": 2,
      "byteOffset": 113736,
      "componentType": 5126,
      "count": 144,
      "max": [
        0.99993896484375,
        0.9999738931655884,
        0.045411817729473114
      ],
      "min": [
        -0.99993896484375,
        -0.9999738931655884,
        -0.9994041919708252
      ],
      "type": "VEC3"
    },
    {
      "bufferView": 1,
      "byteOffset": 37336,
      "componentType": 5126,
      "count": 144,
      "max": [
        0.995364248752594,
        0.6725118160247803
      ],
      "min": [
        0.2513870894908905,
        0.3633483052253723
      ],
      "type": "VEC2"
    },
    {
      "bufferView": 0,
      "byteOffset": 97368,
      "componentType": 5125,
      "count": 576,
      "type": "SCALAR"
    }
  ],
  "asset": {
    "extras": {
      "author": "abdullahyeahyea (https://sketchfab.com/abdullahyeahyea)",
      "license": "CC-BY-4.0 (http://creativecommons.org/licenses/by/4.0/)",
      "source": "https://sketchfab.com/3d-models/hammer-79d352623fcf4f3aa39ffae715e6b4a8",
      "title": "Hammer"
    },
    "generator": "Sketchfab-12.68.0",
    "version": "2.0"
  },
  "bufferViews": [
    {
      "buffer": 0,
      "byteLength": 99672,
      "name": "floatBufferViews",
      "target": 34963
    },
    {
      "buffer": 0,
      "byteLength": 38488,
      "byteOffset": 99672,
      "byteStride": 8,
      "name": "floatBufferViews",
      "target": 34962
    },
    {
      "buffer": 0,
      "byteLength": 115464,
      "byteOffset": 138160,
      "byteStride": 12,
      "name": "floatBufferViews",
      "target": 34962
    }
  ],
  "buffers": [
    {
      "byteLength": 253624,
      "uri": "scene.bin"
    }
  ],
  "materials": [
    {
      "doubleSided": true,
      "name": "Material.001",
      "pbrMetallicRoughness": {
        "baseColorFactor": [
          0.176875,
          0.176875,
          0.176875,
          1.0
        ],
        "roughnessFactor": 0.1105846694513859
      }
    },
    {
      "doubleSided": true,
      "name": "Material.004",
      "pbrMetallicRoughness": {
        "baseColorFactor": [
          0.0362589,
          0.00453975,
          0.00499018,
          1.0
        ],
        "metallicFactor": 0.0,
        "roughnessFactor": 0.9974697186199473
      }
    },
    {
      "doubleSided": true,
      "name": "Material.003",
      "pbrMetallicRoughness": {
        "baseColorFactor": [
          0.3206165176906652,
          0.24974391786630487,
          0.18163864737524943,
          1.0
        ],
        "metallicFactor": 0.4151618238087421,
        "roughnessFactor": 0.2747493448613416
      }
    },
    {
      "doubleSided": true,
      "name": "Material.002",
      "pbrMetallicRoughness": {
        "baseColorFactor": [
          0.3052835848314484,
          0.11974702602973064,
          0.05405161278962191,
          1.0
        ],
        "metallicFactor": 0.0,
        "roughnessFactor": 0.8211145618000169
      }
    }
  ],
  "meshes": [
    {
      "name": "Cube.001_Material.001_0",
      "primitives": [
        {
          "attributes": {
            "NORMAL": 1,
            "POSITION": 0,
            "TEXCOORD_0": 2
          },
          "indices": 3,
          "material": 0,
          "mode": 4
        }
      ]
    },
    {
      "name": "Cube.001_Material.004_0",
      "primitives": [
        {
          "attributes": {
            "NORMAL": 5,
            "POSITION": 4,
            "TEXCOORD_0": 6
          },
          "indices": 7,
          "material": 1,
          "mode": 4
        }
      ]
    },
    {
      "name": "Cylinder_Material.004_0",
      "primitives": [
        {
          "attributes": {
            "NORMAL": 9,
            "POSITION": 8,
            "TEXCOORD_0": 10
          },
          "indices": 11,
          "material": 1,
          "mode": 4
        }
      ]
    },
    {
      "name": "Cylinder_Material.003_0",
      "primitives": [
        {
          "attributes": {
            "NORMAL": 13,
            "POSITION": 12,
            "TEXCOORD_0": 14
          },
          "indices": 15,
          "material": 2,
          "mode": 4
        }
      ]
    },
    {
      "name": "Cylinder_Material.002_0",
      "primitives": [
        {
          "attributes": {
            "NORMAL": 17,
            "POSITION": 16,
            "TEXCOORD_0": 18
          },
          "indices": 19,
          "material": 3,
          "mode": 4
        }
      ]
    }
  ],
  "nodes": [
    {
      "children": [
        1
      ],
      "matrix": [
        1.0,
        0.0,
        0.0,
        0.0,
        0.0,
        2.220446049250313e-16,
        -1.0,
        0.0,
        0.0,
        1.0,
        2.220446049250313e-16,
        0.0,
        0.0,
        0.0,
        0.0,
        1.0
      ],
      "name": "Sketchfab_model"
    },
    {
      "children": [
        2
      ],
      "matrix": [
        1.0,
        0.0,
        0.0,
        0.0,
        0.0,
        0.0,
        1.0,
        0.0,
        0.0,
        -1.0,
        0.0,
        0.0,
        0.0,
        0.0,
        0.0,
        1.0
      ],
      "name": "fb2f3bd49fb04e8c9bff31bb5ed5f54e.fbx"
    },
    {
      "children": [
        3,
        6
      ],
      "name": "RootNode"
    },
    {
      "children": [
        4,
        5
      ],
      "matrix": [
        100.0,
        0.0,
        0.0,
        0.0,
        0.0,
        -1.629206793918314e-05,
        -99.99999999999868,
        0.0,
        0.0,
        99.99999999999868,
        -1.629206793918314e-05,
        0.0,
        0.0,
        63.18452453613281,
        0.0,
        1.0
      ],
      "name": "Cube.001"
    },
    {
      "mesh": 0,
      "name": "Cube.001_Material.001_0"
    },
    {
      "mesh": 1,
      "name": "Cube.001_Material.004_0"
    },
    {
      "children": [
        7,
        8,
        9
      ],
      "matrix": [
        100.0,
        0.0,
        0.0,
        0.0,
        0.0,
        -1.629206793918314e-05,
        -99.99999999999868,
        0.0,
        0.0,
        99.99999999999868,
        -1.629206793918314e-05,
        0.0,
        0.0,
        -312.4607849121094,
        0.0,
        1.0
      ],
      "name": "Cylinder"
    },
    {
      "mesh": 2,
      "name": "Cylinder_Material.004_0"
    },
    {
      "mesh": 3,
      "name": "Cylinder_Material.003_0"
    },
    {
      "mesh": 4,
      "name": "Cylinder_Material.002_0"
    }
  ],
  "scene": 0,
  "scenes": [
    {
      "name": "Sketchfab_Scene",
      "nodes": [
        0
      ]
    }
  ]
}
